<svg width="18" height="18" viewBox="0 0 18 18" fill="none" xmlns="http://www.w3.org/2000/svg">
<path fill-rule="evenodd" clip-rule="evenodd" d="M3.17944 7.79352C3.19025 4.61308 5.77726 2.04358 8.9577 2.05436C12.1381 2.06519 14.7076 4.65221 14.6969 7.83265V7.89787C14.6577 9.96526 13.5034 11.8761 12.0881 13.3696C11.2788 14.2101 10.3749 14.9541 9.39466 15.587C9.13254 15.8137 8.74374 15.8137 8.48162 15.587C7.02024 14.6358 5.73764 13.4349 4.69249 12.0392C3.76096 10.8221 3.23207 9.34484 3.17944 7.81308V7.79352Z" stroke="#008ECC" stroke-linecap="round" stroke-linejoin="round"/>
<path d="M8.93818 9.75002C9.95751 9.75002 10.7838 8.92369 10.7838 7.90437C10.7838 6.88504 9.95751 6.05872 8.93818 6.05872C7.91886 6.05872 7.09253 6.88504 7.09253 7.90437C7.09253 8.92369 7.91886 9.75002 8.93818 9.75002Z" stroke="#008ECC" stroke-linecap="round" stroke-linejoin="round"/>
</svg>
